<?xml version="1.0" encoding="utf-8"?>
<!-- Generator: Adobe Illustrator 24.0.0, SVG Export Plug-In . SVG Version: 6.00 Build 0)  -->
<svg version="1.1" id="Layer_1" xmlns="http://www.w3.org/2000/svg" xmlns:xlink="http://www.w3.org/1999/xlink" x="0px" y="0px"
	 viewBox="0 0 401 143.32" style="enable-background:new 0 0 401 143.32;" xml:space="preserve">
<style type="text/css">
	.st0{fill:none;}
	.st1{fill:#FFFFFF;}
	.st2{fill:#D01E12;}
	.st3{fill:#5B5B5F;}
</style>
<g>
	<rect x="-38.59" y="-35.48" class="st0" width="476.2" height="214.28"/>
</g>
<g>
	<rect x="490.41" y="-35.48" class="st0" width="476.2" height="214.28"/>
	<g>
		<path class="st1" d="M706.59,107.65h-42.99V64.66h10.65V96.9h21.7V64.66h10.65V107.65z"/>
		<path class="st1" d="M760.84,64.55v42.99h-43.4V81.71h32.35v-7.03h-32.35V64.55H760.84z M749.78,97.93v-7.44h-21.29v7.44H749.78z"
			/>
		<path class="st1" d="M782.64,81.81h32.35v25.83h-43.4v-9.71h32.35v-7.44h-32.35V64.66h43.4v10.03h-32.35V81.81z"/>
		<path class="st1" d="M869.03,64.55v42.99h-43.4V81.71h32.35v-7.03h-32.35V64.55H869.03z M857.98,97.93v-7.44h-21.29v7.44H857.98z"
			/>
		<path class="st1" d="M923.18,50.29v57.35h-43.4V64.55h32.35V50.29H923.18z M912.12,96.9V75.3h-21.7v21.6H912.12z"/>
		<polygon class="st1" points="608.44,150.85 591.49,140.49 591.49,74.58 608.44,64.7 		"/>
		<g>
			<path class="st1" d="M684.53,118.78h-17.94v8.97h17.94v2.99h-20.93v-14.95h20.93V118.78z"/>
			<path class="st1" d="M697.69,115.79h20.93v14.95h-20.93V115.79z M700.68,127.75h14.95v-8.97h-14.95V127.75z"/>
			<path class="st1" d="M734.77,121.77v8.97h-2.99v-14.95h2.99l7.48,11.22l7.48-11.22h2.99v14.95h-2.99v-8.97l-5.98,8.97h-2.99
				L734.77,121.77z"/>
			<path class="st1" d="M768.87,130.74h-2.99v-14.95h20.93v8.97h-17.94V130.74z M768.87,121.77h14.95v-2.99h-14.95V121.77z"/>
			<path class="st1" d="M799.97,115.79h2.99v11.96h14.95v-11.96h2.99v14.95h-20.93V115.79z"/>
			<path class="st1" d="M834.06,115.79H855v2.99h-8.97v11.96h-2.99v-11.96h-8.97V115.79z"/>
			<path class="st1" d="M889.09,124.76h-17.94v2.99h17.94v2.99h-20.93v-14.95h20.93v2.99h-17.94v2.99h17.94V124.76z"/>
			<path class="st1" d="M905.24,130.74h-2.99v-14.95h20.93v8.97h-2.99l2.99,5.98h-3.35l-2.99-5.98h-11.6V130.74z M905.24,121.77
				h14.95v-2.99h-14.95V121.77z"/>
		</g>
		<polygon class="st1" points="591.49,7.53 533.83,40.82 533.83,107.39 584.13,136.44 584.13,116.17 551.38,97.26 551.38,50.95 
			591.49,27.8 631.59,50.95 631.59,97.26 616.11,106.2 616.11,126.46 649.14,107.39 649.14,40.82 		"/>
	</g>
</g>
<g>
	<path class="st2" d="M177.59,100.12h-42.99V57.13h10.65v32.24h21.7V57.13h10.65V100.12z"/>
	<path class="st2" d="M231.84,57.02v42.99h-43.4V74.18h32.35v-7.03h-32.35V57.02H231.84z M220.78,90.4v-7.44h-21.29v7.44H220.78z"/>
	<path class="st2" d="M253.64,74.28h32.35v25.83h-43.4V90.4h32.35v-7.44h-32.35V57.13h43.4v10.03h-32.35V74.28z"/>
	<path class="st2" d="M340.03,57.02v42.99h-43.4V74.18h32.35v-7.03h-32.35V57.02H340.03z M328.98,90.4v-7.44h-21.29v7.44H328.98z"/>
	<path class="st2" d="M394.18,42.76v57.35h-43.4V57.02h32.35V42.76H394.18z M383.12,89.37v-21.6h-21.7v21.6H383.12z"/>
	<polygon class="st3" points="79.44,143.32 62.49,132.96 62.49,67.05 79.44,57.17 	"/>
	<g>
		<path class="st3" d="M155.53,111.25h-17.94v8.97h17.94v2.99h-20.93v-14.95h20.93V111.25z"/>
		<path class="st3" d="M168.69,108.26h20.93v14.95h-20.93V108.26z M171.68,120.22h14.95v-8.97h-14.95V120.22z"/>
		<path class="st3" d="M205.77,114.24v8.97h-2.99v-14.95h2.99l7.48,11.22l7.48-11.22h2.99v14.95h-2.99v-8.97l-5.98,8.97h-2.99
			L205.77,114.24z"/>
		<path class="st3" d="M239.87,123.22h-2.99v-14.95h20.93v8.97h-17.94V123.22z M239.87,114.24h14.95v-2.99h-14.95V114.24z"/>
		<path class="st3" d="M270.97,108.26h2.99v11.96h14.95v-11.96h2.99v14.95h-20.93V108.26z"/>
		<path class="st3" d="M305.06,108.26H326v2.99h-8.97v11.96h-2.99v-11.96h-8.97V108.26z"/>
		<path class="st3" d="M360.09,117.23h-17.94v2.99h17.94v2.99h-20.93v-14.95h20.93v2.99h-17.94v2.99h17.94V117.23z"/>
		<path class="st3" d="M376.24,123.22h-2.99v-14.95h20.93v8.97h-2.99l2.99,5.98h-3.35l-2.99-5.98h-11.6V123.22z M376.24,114.24
			h14.95v-2.99h-14.95V114.24z"/>
	</g>
	<polygon class="st2" points="62.49,0 4.83,33.29 4.83,99.86 55.13,128.91 55.13,108.64 22.38,89.73 22.38,43.42 62.49,20.27 
		102.59,43.42 102.59,89.73 87.11,98.67 87.11,118.93 120.14,99.86 120.14,33.29 	"/>
</g>
</svg>
